<svg width="68" height="71" viewBox="0 0 68 71" fill="none" xmlns="http://www.w3.org/2000/svg">
<g filter="url(#filter0_dd_4655_25966)">
<circle cx="34" cy="34" r="32" fill="#19CAE2"/>
<circle cx="34" cy="34" r="31" stroke="white" stroke-width="2"/>
<g clip-path="url(#clip0_4655_25966)">
<path fill-rule="evenodd" clip-rule="evenodd" d="M43.686 16.9577C44.0315 16.4972 44.0492 16.0659 43.8017 15.7117C45.5986 16.5973 47.2492 17.7202 48.707 19.0371L48.707 34.0839C47.9323 33.0936 46.8554 32.2988 45.6115 32.0693C45.7899 31.3777 45.8172 30.6445 45.634 29.9607C45.4266 29.1874 44.9541 28.6468 44.0942 28.576C43.5365 28.5298 42.4982 28.9102 41.8007 29.2044L41.8007 22.5828C42.2427 20.2139 42.9306 17.9651 43.6844 16.9593L43.686 16.9577ZM34.4573 13.449C36.656 13.4937 38.7711 13.8541 40.7576 14.4856C38.7068 14.1098 36.1818 14.0112 34.4573 13.9974L34.4573 13.449ZM34.0008 13.4444L34.0169 13.4444L34.0169 13.9958C33.9574 13.9958 33.8963 13.9958 33.8385 13.9958C32.3871 13.9989 29.8172 14.0682 27.6008 14.3747C29.6211 13.7709 31.77 13.4444 34.0008 13.4444ZM19.7672 18.6228C20.9292 17.6339 22.2021 16.7667 23.5683 16.0367C23.504 16.317 23.5843 16.6297 23.8302 16.9577C25.4134 19.0694 26.6991 26.6491 26.0546 29.3507C25.4101 29.0611 24.0794 28.519 23.4204 28.5744C22.5589 28.6468 22.0864 29.1874 21.8807 29.9591C21.6653 30.7616 21.7408 31.6303 22.0092 32.4205C21.9578 32.4451 21.908 32.4697 21.8582 32.4944C21.7955 32.5267 21.7328 32.5606 21.6701 32.5961C21.6074 32.6315 21.5464 32.6684 21.4869 32.7054C21.4258 32.7439 21.3663 32.7824 21.3069 32.8225C21.2474 32.8625 21.1896 32.9041 21.1317 32.9472C21.0738 32.9904 21.016 33.035 20.9597 33.0797C20.9035 33.1259 20.8472 33.1721 20.7926 33.2199C20.7379 33.2676 20.6833 33.3169 20.6302 33.3662C20.5772 33.417 20.5242 33.4678 20.4727 33.5202C20.4213 33.5726 20.3699 33.6249 20.32 33.6789C20.2702 33.7328 20.2204 33.7882 20.1722 33.8452C20.124 33.9022 20.0773 33.9592 20.0307 34.0162C19.9841 34.0747 19.9391 34.1332 19.8941 34.1933C19.8523 34.2503 19.8105 34.3088 19.7704 34.3674L19.7704 18.6243L19.7672 18.6228ZM19.3268 48.9891C19.1612 48.8397 18.9973 48.6872 18.835 48.5332C16.8565 46.6371 15.2621 44.3729 14.1756 41.8607C13.1293 39.441 12.5523 36.7856 12.5523 33.9992C12.5523 31.2129 13.1293 28.5575 14.1756 26.1377C15.2621 23.624 16.8548 21.3614 18.835 19.4653C18.9957 19.3113 19.1596 19.1588 19.3268 19.0094L19.3268 35.1067C19.3171 35.1252 19.3075 35.1436 19.2978 35.1621C19.2641 35.2299 19.2303 35.2992 19.1982 35.3685C19.166 35.4394 19.1355 35.5087 19.105 35.5811C19.076 35.6519 19.0471 35.7243 19.0198 35.7967C18.9925 35.8691 18.9668 35.9415 18.9426 36.0154C18.9185 36.0894 18.8944 36.1633 18.8719 36.2388C18.8494 36.3142 18.8285 36.3897 18.8092 36.4652C18.79 36.5407 18.7723 36.6177 18.7546 36.6947C18.7385 36.7717 18.7224 36.8487 18.708 36.9273C18.6935 37.0058 18.6823 37.0844 18.671 37.1629C18.6598 37.2415 18.6501 37.3216 18.6421 37.4001C18.6341 37.4802 18.6276 37.5603 18.6228 37.6404C18.618 37.7205 18.6148 37.8021 18.6132 37.8822C18.6116 37.9639 18.6116 38.0455 18.6132 38.1271C18.6148 38.2088 18.618 38.2904 18.6228 38.3736C18.6276 38.4552 18.6341 38.5384 18.6421 38.62C18.6501 38.7032 18.6614 38.7848 18.6726 38.868C18.6839 38.9512 18.6983 39.0344 18.7144 39.116C18.7305 39.1992 18.7466 39.2823 18.7658 39.3655C18.7851 39.4487 18.806 39.5319 18.8285 39.615C18.851 39.6982 18.8767 39.7814 18.9025 39.8646C18.9298 39.9477 18.9587 40.0309 18.9892 40.1125C19.0198 40.1957 19.0535 40.2789 19.0873 40.3605C19.1226 40.4437 19.158 40.5253 19.1966 40.607C19.2352 40.6901 19.2769 40.7718 19.3187 40.8519C19.3203 40.8549 19.3219 40.858 19.3236 40.8611L19.3236 48.9922L19.3268 48.9891ZM26.6718 53.3234C26.3777 53.2202 26.0868 53.1124 25.7975 52.9984C23.5747 52.1158 21.5399 50.8851 19.7671 49.3757L19.7671 41.582C19.8218 41.659 19.8764 41.736 19.9343 41.813C19.9938 41.8915 20.0565 41.9701 20.1191 42.0471C20.1834 42.1257 20.2493 42.2027 20.3184 42.2782C20.3875 42.3552 20.4583 42.4322 20.5306 42.5061C20.5708 42.5477 20.6109 42.5893 20.6511 42.6293C20.6913 42.6694 20.7299 42.7094 20.7701 42.7495C20.8102 42.788 20.8488 42.828 20.889 42.8665C20.9276 42.905 20.9661 42.942 21.0063 42.979C21.0449 43.0159 21.0835 43.0514 21.122 43.0883C21.1606 43.1238 21.1976 43.1576 21.2362 43.1931C21.2731 43.227 21.3117 43.2608 21.3503 43.2947C21.3872 43.3271 21.4242 43.361 21.4628 43.3933C21.4997 43.4256 21.5367 43.4565 21.5737 43.4873C21.6106 43.5181 21.646 43.5489 21.683 43.5781C21.7183 43.6074 21.7553 43.6367 21.7923 43.6659C21.8276 43.6937 21.863 43.7229 21.8999 43.7506C21.9353 43.7784 21.9707 43.8046 22.006 43.8323C22.0398 43.8585 22.0751 43.8831 22.1105 43.9093C22.1442 43.9339 22.1796 43.9586 22.215 43.9832C22.2487 44.0079 22.2841 44.031 22.3178 44.0556C22.3516 44.0787 22.3853 44.1003 22.4191 44.1234C22.4528 44.145 22.4866 44.1681 22.5203 44.1896C22.5541 44.2096 22.5862 44.2312 22.62 44.2512C22.6537 44.2713 22.6859 44.2913 22.7196 44.3098C22.7518 44.3282 22.7839 44.3467 22.8177 44.3652C22.8498 44.3837 22.882 44.4006 22.9141 44.4176C22.9463 44.4345 22.9784 44.4515 23.0105 44.4684C23.0427 44.4838 23.0732 44.5008 23.1054 44.5146C23.1375 44.53 23.1697 44.5454 23.2018 44.5593C23.2629 44.587 23.3256 44.6147 23.3882 44.6394C23.4783 44.6763 23.5699 44.7102 23.6631 44.7395C23.6936 44.7487 23.7225 44.758 23.7531 44.7672C23.782 44.7765 23.8126 44.7842 23.8415 44.7919C23.8704 44.7996 23.8993 44.8073 23.9299 44.815C23.9588 44.8227 23.9877 44.8288 24.0183 44.835C24.0761 44.8473 24.134 44.8581 24.1919 44.8673C24.3028 44.8843 24.4153 44.8951 24.5278 44.8997C24.5551 44.8997 24.5824 44.9012 24.6081 44.9012C24.6355 44.9012 24.6628 44.9012 24.6901 44.9012C24.7174 44.9012 24.7431 44.8997 24.7705 44.8981C24.7962 44.8981 24.8219 44.8951 24.8476 44.892C24.8733 44.8889 24.9007 44.8874 24.9264 44.8827C24.9521 44.8797 24.9794 44.875 25.0051 44.872C25.0308 44.8673 25.0549 44.8643 25.0807 44.8581C25.1048 44.8535 25.1289 44.8489 25.153 44.8427C25.1771 44.8365 25.2012 44.8304 25.2253 44.8242C25.2494 44.818 25.2751 44.8103 25.2992 44.8042C25.3217 44.798 25.3442 44.7903 25.3668 44.7826C25.3909 44.7749 25.4134 44.7672 25.4359 44.758C25.4584 44.7503 25.4793 44.741 25.5018 44.7318C25.5243 44.7226 25.5452 44.7133 25.5677 44.7025C25.5885 44.6933 25.6094 44.684 25.6287 44.6733C25.6496 44.6625 25.6689 44.6532 25.6898 44.6425C25.7107 44.6317 25.7316 44.6194 25.7525 44.6086C25.7718 44.5978 25.7895 44.587 25.8087 44.5747C25.828 44.5624 25.8473 44.55 25.8666 44.5377C25.8666 44.5377 25.8682 44.5377 25.8698 44.5362C25.8746 44.5362 25.8795 44.5393 25.8859 44.5408C25.8939 44.5423 25.9004 44.5454 25.9084 44.547C25.9164 44.55 25.9245 44.5516 25.9325 44.5547C25.9389 44.5562 25.947 44.5593 25.9534 44.5624C25.9614 44.5654 25.9679 44.567 25.9743 44.5701C25.9823 44.5731 25.9887 44.5762 25.9968 44.5793C26.0032 44.5824 26.0112 44.5855 26.0177 44.5885C26.0257 44.5916 26.0338 44.5963 26.0418 44.5993C26.0466 44.6009 26.0514 44.604 26.0546 44.6055L26.0659 44.6117C26.0659 44.6117 26.0755 44.6178 26.082 44.6194C26.0884 44.6224 26.0948 44.6271 26.1013 44.6301C26.1093 44.6348 26.1173 44.6394 26.1254 44.644C26.1318 44.6486 26.1382 44.6517 26.1446 44.6563C26.1511 44.6609 26.1591 44.6656 26.1655 44.6702C26.172 44.6748 26.18 44.6794 26.1864 44.684C26.1929 44.6887 26.2009 44.6933 26.2073 44.6994C26.2122 44.7025 26.217 44.7071 26.2234 44.7102L26.2539 44.7349C26.2539 44.7349 26.2604 44.741 26.2652 44.7441L26.2957 44.7688L26.3359 44.8057L26.3568 44.8258L26.3986 44.8673L26.4388 44.9105L26.4806 44.9582L26.4998 44.9813L26.54 45.0306L26.5802 45.083L26.5995 45.1092L26.6397 45.1646L26.6782 45.2201L26.6782 53.3249L26.6718 53.3234ZM32.3293 54.3138C32.3373 54.3769 32.3566 54.437 32.3823 54.494C30.5517 54.3631 28.7853 54.0134 27.1138 53.4713L27.1138 46.0872C27.2247 46.4554 27.2954 46.919 27.3533 47.2239C27.4658 47.8108 27.6072 48.5332 27.9512 49.0384C28.5459 49.9102 29.5327 50.5324 30.3122 51.244C30.5051 51.4212 30.7028 51.5952 30.9004 51.7677L31.5594 52.3422C31.7362 52.5024 31.9066 52.6672 32.0464 52.8336C32.0528 52.8428 32.0609 52.8505 32.0673 52.8582C32.1236 52.9429 32.1814 53.0277 32.2312 53.1155C32.3196 53.2695 32.3534 53.3881 32.3984 53.5544C32.4096 53.5929 32.4305 53.6468 32.4354 53.6854C32.3968 53.9164 32.2939 54.0612 32.3277 54.3153L32.3293 54.3138ZM41.3635 53.3111C39.205 54.0673 36.881 54.4986 34.4589 54.5479L34.4589 54.1936C34.4798 54.1767 34.499 54.1582 34.5215 54.1413C34.6951 54.1012 34.8285 54.0196 34.9651 53.8887C35.1564 53.7054 35.3412 53.4512 35.4939 53.2371L35.5245 53.1925L35.547 53.1447C35.547 53.1447 35.547 53.1432 35.547 53.1416L35.7157 53.0692C35.8154 53.0261 35.915 52.9799 36.0131 52.9322C36.942 52.4793 37.5833 51.9217 38.3243 51.244C39.0154 50.6125 39.9235 49.9872 40.4442 49.2217C40.7656 48.7503 41.0067 47.84 41.1739 47.2886C41.2301 47.1007 41.2928 46.8835 41.3603 46.6633L41.3603 53.3142L41.3635 53.3111ZM48.7086 48.9598C46.8281 50.6587 44.6278 52.0357 42.2057 52.9969C42.0723 53.0492 41.9389 53.1016 41.8039 53.1524L41.8039 45.5774C42.0338 45.1554 42.352 44.6625 42.8277 44.5377C43.4176 44.9336 44.144 44.9859 44.8528 44.7934C46.1049 44.4561 47.3039 43.3964 48.1637 42.5046C48.3598 42.3013 48.5414 42.0902 48.7086 41.8715L48.7086 48.9598ZM47.6928 42.0872C45.1936 44.6794 43.7165 44.5316 43.0174 43.8939C42.0563 43.9185 41.5323 44.721 41.1337 45.4865C40.7335 46.252 40.3028 48.3098 39.9106 48.8843C39.4702 49.5313 38.6103 50.1335 37.8839 50.7974C37.3712 51.2656 36.717 51.8986 35.7238 52.3823C35.6354 52.4254 35.5454 52.467 35.4537 52.5071C35.5245 52.296 35.547 52.0496 35.5148 51.8324C35.4811 51.6075 35.3878 51.4135 35.3669 51.2317C35.3461 51.05 35.3975 50.8821 35.3702 50.9113C35.3412 50.9406 35.2335 51.1686 35.2207 51.3349C35.2078 51.5013 35.2898 51.6045 35.3268 51.7385C35.3637 51.8725 35.3525 52.0357 35.2962 52.2098C35.24 52.3838 35.1355 52.5671 35.0535 52.7181C35.0198 52.7812 34.9892 52.8382 34.9651 52.8875C34.806 53.1124 34.6244 53.3434 34.5135 53.4497C34.364 53.5929 34.3383 53.5144 34.2258 53.5806C34.1149 53.6468 33.9172 53.8609 33.8095 53.9056C33.7003 53.9503 33.681 53.8271 33.6408 53.8271C33.6006 53.8271 33.5443 53.9503 33.4833 53.9688C33.4206 53.9857 33.3547 53.8964 33.3049 53.9149C33.255 53.9318 33.2245 54.0566 33.1554 54.1505C33.0863 54.2445 32.977 54.3092 32.9674 54.2321C32.9577 54.1551 33.0445 53.9364 33.0702 53.7808C33.0959 53.6253 33.0606 53.5298 33.0204 53.3912C32.9818 53.2525 32.94 53.0692 32.7954 52.8151C32.7359 52.7104 32.6588 52.5948 32.5832 52.4855C32.5704 52.4716 32.5591 52.4578 32.5479 52.4439C32.3068 52.1559 31.9291 51.8278 31.4967 51.452C31.4839 51.4027 30.9519 50.976 30.7542 50.7958C30.0277 50.132 29.0039 49.4558 28.488 48.698C27.9721 47.9402 27.9608 46.2536 27.5638 45.4865L27.5638 45.4834L27.5429 45.448L27.5237 45.4126L27.5044 45.3772L27.4851 45.3417L27.4658 45.3063L27.4465 45.2709L27.4272 45.2355L27.4063 45.2L27.3854 45.1646L27.3645 45.1292L27.3436 45.0938L27.3228 45.0583L27.3019 45.0229L27.2794 44.9875L27.2569 44.9536L27.2344 44.9197L27.2119 44.8858L27.1894 44.8519L27.1652 44.818L27.1411 44.7842L27.117 44.7518L27.0929 44.7195L27.0688 44.6871L27.0431 44.6548L27.0174 44.6224L26.9917 44.5916L26.9659 44.5608L26.9402 44.53L26.9129 44.5008L26.8856 44.4715L26.8583 44.4422L26.8309 44.4145L26.802 44.3868L26.7731 44.359L26.7441 44.3329L26.7152 44.3067L26.6847 44.282C26.675 44.2743 26.6638 44.2651 26.6541 44.2574L26.6236 44.2327C26.6124 44.225 26.6027 44.2173 26.5915 44.2096C26.5802 44.2019 26.5706 44.1942 26.5593 44.1865C26.5481 44.1788 26.5384 44.1711 26.5272 44.165C26.5159 44.1573 26.5047 44.1511 26.4934 44.1434C26.4822 44.1357 26.4709 44.1295 26.4597 44.1234C26.4484 44.1172 26.4372 44.1095 26.4259 44.1034C26.4147 44.0972 26.4034 44.091 26.3922 44.0849C26.3809 44.0787 26.3697 44.0726 26.3568 44.0664C26.3456 44.0602 26.3327 44.0541 26.3214 44.0495C26.3102 44.0433 26.2973 44.0387 26.2861 44.0325C26.2732 44.0279 26.262 44.0217 26.2491 44.0171C26.2363 44.0125 26.225 44.0079 26.2122 44.0017C26.1993 43.9971 26.1864 43.9925 26.1752 43.9878C26.1623 43.9832 26.1495 43.9786 26.1366 43.9755C26.1238 43.9709 26.1109 43.9678 26.098 43.9632C26.0852 43.9586 26.0723 43.9555 26.0595 43.9524C26.0466 43.9493 26.0338 43.9447 26.0193 43.9416C26.0064 43.9386 25.992 43.9355 25.9791 43.9324C25.9662 43.9293 25.9518 43.9262 25.9373 43.9247C25.9229 43.9216 25.91 43.9201 25.8955 43.917C25.8811 43.9155 25.8666 43.9124 25.8537 43.9108C25.8393 43.9093 25.8248 43.9078 25.8103 43.9062C25.7959 43.9062 25.7814 43.9031 25.767 43.9016C25.7525 43.9016 25.738 43.9 25.7236 43.8985C25.7091 43.8985 25.693 43.8985 25.6785 43.897C25.6673 43.9062 25.6561 43.917 25.6448 43.9262C25.6336 43.9355 25.6223 43.9463 25.611 43.9555C25.5998 43.9647 25.5869 43.974 25.5757 43.9832C25.5628 43.9925 25.5516 44.0017 25.5387 44.011C25.5259 44.0202 25.513 44.0279 25.5001 44.0371C25.4873 44.0464 25.4744 44.0541 25.4616 44.0618C25.4487 44.0695 25.4343 44.0787 25.4214 44.0864C25.4069 44.0941 25.3941 44.1018 25.3796 44.1095C25.3651 44.1172 25.3507 44.1249 25.3362 44.1311C25.3217 44.1388 25.3073 44.145 25.2928 44.1511C25.2783 44.1573 25.2623 44.165 25.2478 44.1711C25.2333 44.1773 25.2173 44.1835 25.2012 44.1896C25.1851 44.1958 25.1691 44.2019 25.153 44.2066C25.1369 44.2112 25.1208 44.2173 25.1048 44.222C25.0887 44.2266 25.071 44.2312 25.0549 44.2358C25.0389 44.2405 25.0212 44.2451 25.0035 44.2482C24.9858 44.2512 24.9682 44.2559 24.9505 44.2589C24.9328 44.262 24.9151 44.2651 24.8974 44.2682C24.8798 44.2713 24.8605 44.2743 24.8428 44.2759C24.8235 44.279 24.8058 44.2805 24.7865 44.282C24.7673 44.2836 24.748 44.2851 24.7287 44.2867C24.7094 44.2867 24.6901 44.2882 24.6708 44.2897C24.6515 44.2897 24.6306 44.2897 24.6113 44.2897C24.5905 44.2897 24.5712 44.2897 24.5503 44.2897C24.4683 44.2867 24.3815 44.279 24.2931 44.2651C24.2481 44.2574 24.2031 44.2497 24.1565 44.2405C24.134 44.2358 24.1099 44.2297 24.0858 44.225C24.0617 44.2189 24.0376 44.2127 24.0151 44.2066C23.991 44.2004 23.9668 44.1927 23.9427 44.1865C23.9186 44.1788 23.8929 44.1711 23.8688 44.1634C23.7933 44.1388 23.7177 44.1111 23.639 44.0787C23.5859 44.0572 23.5329 44.0341 23.4783 44.0094C23.4509 43.9971 23.4236 43.9848 23.3963 43.9709C23.369 43.957 23.34 43.9432 23.3127 43.9293C23.2838 43.9155 23.2565 43.9 23.2275 43.8846C23.1986 43.8692 23.1697 43.8538 23.1407 43.8369C23.1118 43.82 23.0829 43.8046 23.0523 43.7876C23.0234 43.7707 22.9929 43.7522 22.9639 43.7352C22.9334 43.7168 22.9045 43.6983 22.8739 43.6798C22.8434 43.6613 22.8129 43.6413 22.7823 43.6213C22.7518 43.6012 22.7196 43.5797 22.6891 43.5597C22.6586 43.5381 22.6264 43.5165 22.5943 43.495C22.5621 43.4719 22.53 43.4503 22.4978 43.4256C22.4657 43.4025 22.4336 43.3779 22.3998 43.3533C22.3677 43.3286 22.3339 43.304 22.3002 43.2778C22.2664 43.2516 22.2343 43.2254 22.2005 43.1992C22.1667 43.173 22.133 43.1453 22.0992 43.1176C22.0655 43.0899 22.0301 43.0606 21.9964 43.0313C21.961 43.0021 21.9273 42.9728 21.8919 42.942C21.8566 42.9112 21.8212 42.8804 21.7858 42.8496C21.7505 42.8172 21.7151 42.7864 21.6781 42.7526C21.6428 42.7202 21.6058 42.6863 21.5689 42.6524C21.5319 42.6186 21.4949 42.5831 21.458 42.5492C21.421 42.5138 21.384 42.4784 21.3455 42.4414C21.3085 42.4045 21.2699 42.3675 21.2313 42.329C21.1928 42.2905 21.1542 42.252 21.1156 42.2135C21.077 42.175 21.0385 42.1349 20.9999 42.0933C20.9324 42.024 20.8681 41.9532 20.8054 41.8823C20.7427 41.8115 20.6817 41.7406 20.6238 41.6697C20.5659 41.5989 20.5081 41.5265 20.4534 41.4557C20.3988 41.3833 20.3458 41.3109 20.2959 41.2385C20.2461 41.1661 20.1963 41.0937 20.1497 41.0198C20.1031 40.9458 20.0581 40.8734 20.0163 40.7995C19.9745 40.7256 19.9327 40.6516 19.8941 40.5777C19.8555 40.5038 19.8186 40.4298 19.7832 40.3559C19.7479 40.282 19.7157 40.2065 19.6836 40.1326C19.653 40.0586 19.6225 39.9832 19.5952 39.9092C19.5679 39.8338 19.5421 39.7598 19.518 39.6843C19.4939 39.6089 19.4714 39.5349 19.4505 39.4595C19.4296 39.384 19.4103 39.3101 19.3943 39.2346C19.3766 39.1591 19.3605 39.0852 19.3477 39.0097C19.3332 38.9342 19.3219 38.8603 19.3107 38.7848C19.2994 38.7094 19.2914 38.6354 19.2834 38.5615C19.2753 38.4876 19.2705 38.4121 19.2657 38.3382C19.2609 38.2642 19.2577 38.1903 19.2577 38.1164C19.2577 38.0424 19.2577 37.9685 19.2577 37.8961C19.2577 37.8222 19.2625 37.7498 19.2673 37.6774C19.2721 37.605 19.2769 37.5326 19.285 37.4602C19.2914 37.3878 19.3011 37.317 19.3107 37.2446C19.3203 37.1737 19.3316 37.1029 19.3445 37.032C19.3573 36.9612 19.3702 36.8903 19.3862 36.821C19.4007 36.7517 19.4184 36.6824 19.4361 36.6131C19.4537 36.5437 19.473 36.476 19.4923 36.4082C19.5116 36.3404 19.5341 36.2727 19.5566 36.2064C19.5791 36.1402 19.6032 36.074 19.6273 36.0077C19.6514 35.9415 19.6771 35.8768 19.7045 35.8121C19.7318 35.7474 19.7591 35.6843 19.788 35.6196C19.817 35.5564 19.8475 35.4933 19.8781 35.4317C19.9086 35.3701 19.9407 35.3085 19.9745 35.2484C20.0082 35.1883 20.042 35.1282 20.0773 35.0682C20.1127 35.0096 20.1481 34.9511 20.185 34.8926C20.222 34.8356 20.259 34.7786 20.2991 34.7216C20.3377 34.6662 20.3779 34.6107 20.4181 34.5568C20.4583 34.5029 20.5 34.449 20.5418 34.3966C20.5836 34.3442 20.627 34.2919 20.6704 34.2426C20.7138 34.1918 20.7588 34.1425 20.8038 34.0932C20.8488 34.0439 20.8938 33.9961 20.9404 33.9499C20.987 33.9037 21.0337 33.8575 21.0819 33.8129C21.1301 33.7682 21.1783 33.7251 21.2265 33.6819C21.2747 33.6388 21.3246 33.5972 21.376 33.5572C21.4258 33.5171 21.4772 33.4771 21.5287 33.4401C21.5801 33.4016 21.6315 33.3646 21.6846 33.3292C21.7376 33.2938 21.7891 33.2584 21.8421 33.226C21.8951 33.1921 21.9498 33.1613 22.0028 33.1305C22.0575 33.0997 22.1121 33.0705 22.1668 33.0427C22.2214 33.015 22.2776 32.9873 22.3323 32.9626C22.3885 32.9364 22.4432 32.9133 22.5011 32.8902C22.5573 32.8671 22.6136 32.8456 22.6714 32.8255C22.7277 32.8055 22.7855 32.787 22.8434 32.7701L22.845 32.7701C22.8354 32.7485 22.8241 32.7285 22.8129 32.7069C22.3259 31.6626 22.3452 30.7262 22.5075 30.1193C22.6698 29.5124 22.9752 29.2352 23.4831 29.1936C23.991 29.1505 25.3732 29.7265 25.82 29.9283C26.2668 30.1301 26.45 30.3442 26.6429 29.6618C27.4304 26.8801 26.0643 18.8846 24.3574 16.6066C24.134 16.3078 24.0729 16.0536 24.6322 15.7656C27.424 14.3285 39.7418 14.1406 42.9001 15.7656C43.4594 16.0536 43.3983 16.3093 43.1749 16.6066C41.4664 18.8846 40.1003 26.8786 40.8894 29.6618C41.0823 30.3426 41.2655 30.1301 41.7123 29.9283C42.1591 29.7265 43.5413 29.1505 44.0492 29.1936C44.5571 29.2367 44.8625 29.5124 45.0248 30.1193C45.1839 30.7108 45.2064 31.6149 44.7564 32.6269C48.1959 32.479 51.6193 38.0332 47.7009 42.0964L47.6928 42.0872ZM41.3635 24.636L41.3635 29.2799C41.2301 28.4266 41.018 26.8201 41.3635 24.636ZM55.3786 35.6827C55.1954 37.8561 54.6586 39.9339 53.826 41.8623C52.7395 44.376 51.1468 46.6386 49.1666 48.5347L49.1474 48.5532L49.1474 41.2339C50.1921 39.5165 50.393 37.4879 49.5717 35.5457C49.4543 35.2669 49.3113 34.9912 49.1474 34.7232L49.1474 19.4468L49.1666 19.4653C51.1452 21.3614 52.7395 23.6255 53.826 26.1377C54.6602 28.0661 55.1954 30.1439 55.3786 32.3173L55.3786 35.6812L55.3786 35.6827ZM58 36.3281L58 31.6704C58 31.3638 57.738 31.1128 57.4182 31.1128L56.8814 31.1128L57.3989 30.9803C57.7091 30.9002 57.8939 30.5937 57.8103 30.2964L56.5519 25.7973C56.4683 25.5001 56.1485 25.3229 55.8383 25.403L55.3207 25.5355L55.7852 25.2783C56.0633 25.1242 56.1581 24.7823 55.999 24.5158L53.5689 20.4834C53.4081 20.2169 53.0513 20.1261 52.7733 20.2786L52.3088 20.5358L52.6881 20.1723C52.9147 19.9551 52.9147 19.5993 52.6881 19.3821L49.2518 16.089C49.0252 15.8719 48.6539 15.8719 48.4273 16.089L48.048 16.4525L48.3164 16.0074C48.4771 15.7409 48.3807 15.399 48.1027 15.245L43.8949 12.9161C43.6169 12.7621 43.2601 12.8545 43.0993 13.1209L42.8309 13.5661L42.9692 13.0701C43.0527 12.7728 42.8663 12.4663 42.5577 12.3862L37.8646 11.1818C37.5544 11.1017 37.2346 11.2803 37.151 11.5761L37.0128 12.0736L37.0128 11.5576C37.0128 11.2511 36.7508 11 36.4293 11L31.5691 11C31.2492 11 30.9872 11.2511 30.9872 11.5576L30.9872 12.072L30.849 11.5761C30.7654 11.2788 30.4456 11.1017 30.1354 11.1818L25.4407 12.3878C25.1305 12.4679 24.9457 12.7744 25.0292 13.0717L25.1675 13.5676L24.899 13.1225C24.7383 12.856 24.3815 12.7651 24.1035 12.9176L19.8957 15.2465C19.6177 15.4005 19.5229 15.7425 19.682 16.0089L19.9504 16.4541L19.5711 16.0906C19.3444 15.8734 18.9732 15.8734 18.7466 16.0906L15.3103 19.3837C15.0837 19.6008 15.0837 19.9566 15.3103 20.1738L15.6896 20.5373L15.2251 20.2801C14.9471 20.1261 14.5903 20.2185 14.4295 20.4849L11.9994 24.5174C11.8387 24.7838 11.9351 25.1258 12.2132 25.2798L12.6776 25.537L12.1585 25.4046C11.8483 25.3245 11.5285 25.5031 11.4449 25.7989L10.1864 30.298C10.1029 30.5952 10.2893 30.9018 10.5979 30.9818L11.1154 31.1143L10.5786 31.1143C10.2588 31.1143 9.99678 31.3654 9.99678 31.6719L9.99678 36.3296C9.99678 36.6362 10.2588 36.8872 10.5786 36.8872L11.1154 36.8872L10.5979 37.0197C10.2877 37.0998 10.1029 37.4063 10.1864 37.7036L11.4449 42.2027C11.5285 42.5 11.8483 42.6771 12.1585 42.597L12.676 42.4645L12.2116 42.7217C11.9335 42.8758 11.8387 43.2177 11.9978 43.4842L14.4279 47.5181C14.5886 47.7846 14.9455 47.8755 15.2235 47.723L15.688 47.4658L15.3087 47.8293C15.0821 48.0464 15.0821 48.4022 15.3087 48.6194L18.745 51.9125C18.9716 52.1297 19.3428 52.1297 19.5695 51.9125L19.9488 51.549L19.6804 51.9941C19.5196 52.2606 19.6161 52.6025 19.8941 52.7566L24.1035 55.0855C24.3815 55.2395 24.7383 55.1471 24.899 54.8806L25.1675 54.4355L25.0292 54.9314C24.9457 55.2287 25.1321 55.5352 25.4407 55.6153L30.1354 56.8213C30.4456 56.9014 30.7654 56.7228 30.849 56.427L30.9872 55.9311L30.9872 56.444C30.9872 56.7505 31.2492 57.0015 31.5691 57.0015L36.4293 57.0015C36.7492 57.0015 37.0111 56.7505 37.0111 56.444L37.0111 55.9295L37.1494 56.4255C37.2329 56.7228 37.5528 56.8999 37.863 56.8198L42.5577 55.6138C42.8679 55.5337 43.0527 55.2272 42.9692 54.9299L42.8309 54.4339L43.0993 54.8791C43.2601 55.1455 43.6169 55.2364 43.8949 55.0839L48.1027 52.755C48.3807 52.601 48.4755 52.2591 48.3164 51.9926L48.048 51.5475L48.4273 51.911C48.6539 52.1281 49.0252 52.1281 49.2518 51.911L52.6881 48.6179C52.9147 48.4007 52.9147 48.0449 52.6881 47.8277L52.3088 47.4642L52.7733 47.7215C53.0513 47.8755 53.4081 47.7831 53.5689 47.5166L55.999 43.4826C56.1597 43.2162 56.0633 42.8742 55.7852 42.7202L55.3207 42.463L55.8383 42.5954C56.1485 42.6755 56.4683 42.4969 56.5519 42.2011L57.8103 37.702C57.8939 37.4048 57.7075 37.0982 57.3989 37.0182L56.8814 36.8857L57.4182 36.8857C57.738 36.8872 58 36.6362 58 36.3281Z" fill="white"/>
<path fill-rule="evenodd" clip-rule="evenodd" d="M34.9824 29.4078C35.0708 29.7513 35.1672 29.9546 35.2572 30.0963C35.4131 30.3427 35.5497 30.4043 35.9403 30.3381C36.3308 30.2719 36.9737 30.0778 37.4607 29.8945C37.9477 29.7112 38.2804 29.5372 38.2193 29.5418C38.1583 29.5449 37.7034 29.7251 37.2084 29.8529C36.7134 29.9808 36.1782 30.0578 35.8278 29.9284C35.6301 29.856 35.4903 29.7189 35.3826 29.4463C35.2492 29.4401 35.1142 29.4263 34.9824 29.4062L34.9824 29.4078Z" fill="white"/>
<path fill-rule="evenodd" clip-rule="evenodd" d="M32.7328 28.2484C32.6267 28.1606 32.5206 28.0682 32.4129 27.9727C32.3936 28.1575 32.3727 28.3285 32.3519 28.484C32.4756 28.4532 32.5978 28.4147 32.7199 28.37C32.7247 28.33 32.7296 28.29 32.7344 28.2499L32.7328 28.2484Z" fill="white"/>
<path fill-rule="evenodd" clip-rule="evenodd" d="M34.7923 28.2476C34.7988 28.3016 34.8036 28.3555 34.81 28.4063L34.81 28.4202C34.9322 28.4648 35.0559 28.5049 35.1797 28.5341C35.1556 28.3662 35.1331 28.1799 35.1122 27.9766C35.0045 28.0705 34.8968 28.1614 34.7923 28.2476Z" fill="white"/>
<path fill-rule="evenodd" clip-rule="evenodd" d="M32.867 23.8687C32.7529 23.8995 32.6372 23.9242 32.5215 23.9442C32.5295 24.1306 32.536 24.3185 32.5392 24.5049C32.5585 25.3335 32.5392 26.1452 32.499 26.863C32.5585 26.9185 32.6195 26.9739 32.6822 27.0278C32.7272 27.0679 32.7738 27.1079 32.8204 27.1464C32.8735 26.2608 32.896 25.2165 32.8751 24.1891C32.8735 24.0813 32.8703 23.9735 32.867 23.8672L32.867 23.8687Z" fill="white"/>
<path fill-rule="evenodd" clip-rule="evenodd" d="M31.1742 20.5333C31.1903 20.5872 31.2192 20.6534 31.2658 20.735C31.4458 21.057 31.8026 21.4728 32.0662 21.7501L32.1032 21.7901C32.1032 21.7901 32.1032 21.7901 32.1032 21.7886C32.1434 21.8302 32.1835 21.8718 32.2221 21.9133C32.2221 21.9164 32.2253 21.921 32.2253 21.9241C32.3378 22.0443 32.4552 22.1644 32.5709 22.2815C32.5677 22.2738 32.5628 22.2645 32.5596 22.2553C32.6287 22.3231 32.693 22.3877 32.7509 22.4447C32.7621 22.4617 32.7734 22.4771 32.7846 22.4909L32.8425 22.5449L32.8538 22.5556C32.8538 22.5556 32.8457 22.5418 32.8409 22.5325C32.8634 22.5541 32.8859 22.5757 32.9052 22.5941C32.9084 22.6003 32.9116 22.6065 32.9148 22.6111C32.9663 22.6588 33.0177 22.705 33.0691 22.7497C33.0981 22.7343 33.1286 22.7174 33.1575 22.7004C33.1575 22.6989 33.1575 22.6973 33.1559 22.6958L33.2636 22.628C33.2636 22.628 33.2668 22.6342 33.2668 22.6357C33.3327 22.5957 33.3986 22.5541 33.4613 22.5125L33.4661 22.5094C33.4661 22.5094 33.4629 22.5048 33.4629 22.5033L33.4999 22.4802C33.4999 22.4802 33.5015 22.4832 33.5031 22.4848C33.5416 22.4586 33.5802 22.4324 33.6172 22.4047C33.6172 22.4047 33.397 22.2322 33.1366 22.0165C33.008 21.9056 32.8827 21.7947 32.7654 21.6838C32.7734 21.6962 32.783 21.71 32.7911 21.7254C32.7654 21.7039 32.7412 21.6823 32.7171 21.6607C32.7059 21.6423 32.6962 21.6253 32.6866 21.6099C32.6368 21.5622 32.5886 21.516 32.5419 21.4697C32.1353 21.0662 31.8605 20.7243 31.6933 20.5271C31.5696 20.3823 31.5037 20.3145 31.4458 20.2822L31.4249 20.2653C31.4249 20.2653 31.4105 20.2637 31.4024 20.2622C31.396 20.2606 31.3912 20.2591 31.3847 20.2576C31.3237 20.2422 31.2529 20.2483 31.2047 20.2945C31.142 20.3392 31.1372 20.4239 31.1726 20.5333L31.1742 20.5333Z" fill="white"/>
<path fill-rule="evenodd" clip-rule="evenodd" d="M36.475 23.4699C36.4782 23.4407 36.475 23.4114 36.4637 23.3852C36.43 23.2959 36.3207 23.2297 36.2307 23.2204C36.2258 23.2204 36.2226 23.2204 36.2178 23.2204C36.1985 23.2189 36.1792 23.2204 36.1615 23.2235C36.0683 23.2451 35.8144 23.3051 35.517 23.2928C35.4206 23.282 35.3113 23.2635 35.1908 23.2312C35.0718 23.2004 34.9417 23.1588 34.8002 23.1018C34.6347 23.0263 34.5157 22.957 34.5157 22.957L34.5013 22.9678C34.5013 22.9678 34.49 22.9632 34.4852 22.9601C34.4145 23.0202 34.3438 23.0787 34.2714 23.1357L34.0529 23.2959C34.0529 23.2959 34.0529 23.2959 34.0545 23.299C34.0512 23.302 34.0464 23.3036 34.0432 23.3067L34.0625 23.3252C34.1123 23.3714 34.1654 23.4099 34.2136 23.4391C34.3823 23.567 34.6845 23.7426 35.1184 23.8026C35.7662 23.892 36.2049 23.7811 36.3094 23.7164C36.3978 23.6625 36.475 23.567 36.4766 23.473L36.475 23.4699Z" fill="white"/>
<path fill-rule="evenodd" clip-rule="evenodd" d="M34.6492 23.8687C34.646 23.9765 34.6427 24.0844 34.6411 24.1922C34.6202 25.2118 34.6427 26.2469 34.6942 27.1264C34.7536 27.0771 34.8115 27.0278 34.8678 26.9801C34.9176 26.9369 34.9674 26.8923 35.0156 26.8491C34.9754 26.1345 34.9562 25.3289 34.9754 24.5064C34.9803 24.32 34.9851 24.1321 34.9931 23.9442C34.8758 23.9242 34.7601 23.898 34.6476 23.8672L34.6492 23.8687Z" fill="white"/>
<path fill-rule="evenodd" clip-rule="evenodd" d="M36.0098 40.3684C36.6366 41.1601 37.6299 41.6714 38.7469 41.6714C39.2869 41.6714 39.798 41.5513 40.2513 41.3387L40.7109 39.8555L36.1673 39.8555L36.0082 40.3684L36.0098 40.3684Z" fill="white"/>
<path fill-rule="evenodd" clip-rule="evenodd" d="M29.0197 41.7367C29.5597 41.7367 30.0708 41.6166 30.524 41.404L31.0078 39.8438L26.4642 39.8437L26.2809 40.4337C26.9094 41.2254 27.901 41.7352 29.0181 41.7352L29.0197 41.7367Z" fill="white"/>
<path fill-rule="evenodd" clip-rule="evenodd" d="M38.5938 46.4727C38.5295 46.6159 38.4989 46.6914 38.5504 46.5836C38.568 46.5466 38.5825 46.5096 38.5938 46.4727Z" fill="white"/>
<path fill-rule="evenodd" clip-rule="evenodd" d="M38.5989 46.4723C38.6889 46.2752 38.8448 45.9517 38.9493 45.8115C39.1872 45.3125 39.1486 44.5239 37.9673 44.6055C38.8754 44.0264 39.1904 44.9721 39.3045 45.4311C39.2531 44.279 38.8577 43.974 37.6394 43.3117C38.6327 43.5566 39.1229 43.9555 39.3688 44.5809C39.3656 44.5454 39.3624 44.5085 39.3591 44.4715L39.3366 44.4715C39.2161 43.763 37.9833 42.9944 37.2794 42.8511C37.7423 42.6725 38.6439 43.1207 39.2129 43.6875C39.2065 43.6613 39.1984 43.6336 39.1904 43.6074C38.7098 42.9081 38.2132 42.7988 37.3758 42.5739C38.0525 42.5462 38.5169 42.6109 38.938 42.8927C38.8513 42.6848 38.7532 42.4799 38.6503 42.2859C38.8464 42.2828 39.0795 42.2658 39.3575 42.232C40.0904 42.1442 41.1496 41.9439 41.7652 41.3987C42.3807 40.8534 42.5511 39.9631 42.662 39.4179C42.7729 38.8726 42.8259 38.6724 43.0027 38.5707C43.1795 38.4706 43.4801 38.4706 43.6376 38.295C43.7951 38.1195 43.808 37.7683 43.7485 37.5804C43.689 37.3924 43.5588 37.3678 43.3692 37.3108C43.1795 37.2538 42.9304 37.166 42.76 37.0597C42.5897 36.9535 42.4981 36.8272 42.2634 36.5515C42.0866 36.3451 41.8295 36.054 41.4518 35.9492L41.4807 35.98L41.5096 36.0108L41.5096 36.0139C41.5257 36.0293 41.5385 36.0447 41.553 36.0601L41.5691 36.0786C41.5835 36.094 41.5964 36.1109 41.6109 36.1279L41.6237 36.1433C41.6382 36.1602 41.6527 36.1772 41.6655 36.1957L41.6768 36.2095C41.6912 36.228 41.7057 36.2465 41.7202 36.265L41.7282 36.2758C41.7427 36.2942 41.7571 36.3127 41.77 36.3327L41.7812 36.3481C41.7925 36.3651 41.8053 36.3805 41.8166 36.3974L41.8391 36.4298L41.8648 36.4683L41.8921 36.5099L41.9114 36.5391L41.9387 36.5838L41.9564 36.6131C41.9661 36.6285 41.9757 36.6454 41.9854 36.6624L41.9998 36.6885C42.0095 36.7055 42.0191 36.7224 42.0271 36.7378L42.0464 36.7733L42.0673 36.8118L42.0866 36.8518L42.1075 36.8965L42.1236 36.9304L42.1461 36.9781L42.1605 37.0105C42.1686 37.0289 42.1766 37.0474 42.1847 37.0659L42.1943 37.089C42.2023 37.109 42.2104 37.1275 42.2168 37.1475L42.2248 37.1706C42.2329 37.1907 42.2393 37.2107 42.2473 37.2307L42.2554 37.2523C42.2618 37.2723 42.2698 37.2939 42.2763 37.3139L42.2827 37.3355C42.2891 37.357 42.2972 37.3786 42.3036 37.4001L42.3084 37.4171C42.3148 37.4417 42.3229 37.4648 42.3293 37.4895L42.3325 37.5003C42.3389 37.5264 42.3454 37.5511 42.3518 37.5773L42.355 37.5896C42.3614 37.6158 42.3679 37.642 42.3727 37.6697L42.3727 37.6728L42.3727 37.6774C42.3791 37.7036 42.3839 37.7313 42.3888 37.7575L42.3888 37.7698C42.3952 37.7945 42.4 37.8191 42.4048 37.8453L42.4048 37.8591C42.4113 37.8853 42.4145 37.91 42.4177 37.9362L42.4177 37.9485C42.4225 37.9747 42.4257 38.0009 42.429 38.0286L42.429 38.0378C42.4322 38.0655 42.4354 38.0933 42.437 38.121L42.437 38.1272C42.4402 38.1564 42.4418 38.1857 42.4434 38.2134L42.4434 38.218C42.445 38.2473 42.4466 38.2781 42.4466 38.3074L42.4466 38.3089C42.4466 38.3397 42.4466 38.3705 42.4466 38.4013C42.4466 40.396 40.759 42.0132 38.6777 42.0132C38.6455 42.0132 38.6134 42.0132 38.5812 42.0132C38.5507 42.0132 38.5218 42.0117 38.4928 42.0102C37.7615 41.9763 37.0849 41.7422 36.5208 41.3648C36.5368 41.3925 36.5497 41.4202 36.5609 41.4449C36.5883 41.508 36.6027 41.5666 36.6043 41.6189C36.6509 41.6343 36.7024 41.6605 36.7538 41.7052C36.8454 41.7837 36.937 41.9147 36.9467 42.0564C36.9563 42.1981 36.884 42.3475 36.7506 42.5046C36.6172 42.6617 36.4195 42.825 36.3874 42.825C36.3552 42.825 36.4854 42.6617 36.5417 42.5015C36.5979 42.3413 36.577 42.1842 36.4918 42.1041C36.4484 42.0625 36.3874 42.041 36.3343 42.0209C36.2813 42.0594 36.2202 42.0995 36.1559 42.1411L36.1286 42.158C36.127 42.2658 36.0772 42.3844 35.9936 42.4907C35.9582 42.4384 35.9277 42.3644 35.8988 42.2997C35.8297 42.3413 35.7589 42.3814 35.6866 42.423C35.7011 42.503 35.6914 42.5985 35.6448 42.711C35.5902 42.6263 35.5516 42.5631 35.5179 42.5154C35.415 42.5693 35.3121 42.6201 35.2125 42.6648C35.2494 42.7279 35.2623 42.7972 35.235 42.8727C35.1482 42.8188 35.0823 42.7772 35.026 42.7433L34.9907 42.7556C34.875 42.7988 34.7673 42.8296 34.6708 42.8604C34.7094 42.9004 34.7383 42.9497 34.7544 43.0098C34.74 43.0221 34.531 43.0098 34.3494 43.0067C34.2883 43.0545 34.2369 43.1161 34.1999 43.2008C34.0697 43.495 34.0955 44.0726 34.1147 44.587C34.134 45.1015 34.1469 45.5528 34.1147 45.3957C34.0826 45.2386 34.0038 44.4746 33.8994 43.9786C33.7949 43.4827 33.6631 43.2578 33.4092 43.0575C33.1536 42.8573 32.7743 42.6817 32.35 42.5123C31.9996 42.3721 31.6171 42.2381 31.3776 42.0995C31.3358 42.1857 31.3342 42.3074 31.3776 42.4291C31.4339 42.5893 31.5641 42.7526 31.5319 42.7526C31.4998 42.7526 31.3037 42.5893 31.1687 42.4322C31.0353 42.2751 30.963 42.1257 30.9726 41.984C30.9822 41.8423 31.0739 41.7113 31.1655 41.6328C31.2201 41.5866 31.2748 41.5589 31.323 41.5435C31.4805 41.4895 31.7023 41.4834 31.9193 41.4526C32.1748 41.4156 32.4223 41.3401 32.7888 41.4079C33.1552 41.4772 33.639 41.6898 34.0183 41.7021C34.3976 41.7144 34.6724 41.5265 34.9473 41.4757C35.2221 41.4249 35.497 41.5127 35.6738 41.5635C35.8505 41.6143 35.9293 41.6266 36.0997 41.5573C36.2074 41.5142 36.352 41.4372 36.4275 41.3001C35.722 40.7964 35.2077 40.0602 35.0051 39.2115C34.7078 38.9912 34.3992 38.8203 34.0922 38.7294C33.6583 38.6 33.2292 38.6277 32.755 38.8942C32.7293 39.0744 32.6907 39.2485 32.6377 39.4194C32.829 39.1992 32.9816 39.0606 33.2275 39.156C32.7293 39.3994 32.7759 39.6258 32.567 39.937C32.8081 39.7891 33.025 39.7013 33.1906 39.7336C32.2246 40.3883 32.0912 40.7656 31.1719 41.3817L31.1639 41.3725C30.6415 41.719 30.0243 41.9439 29.3557 42.0009L29.3091 42.004C29.2754 42.0071 29.2448 42.0086 29.2127 42.0102C29.1805 42.0117 29.1484 42.0132 29.1162 42.0132C29.0825 42.0132 29.0503 42.0132 29.0182 42.0132C26.9368 42.0132 25.2492 40.396 25.2492 38.4013C25.2492 38.3721 25.2492 38.3412 25.2492 38.312L25.2492 38.3058C25.2492 38.2766 25.2509 38.2473 25.2525 38.218L25.2525 38.2134C25.2557 38.1533 25.2605 38.0948 25.2669 38.0347L25.2669 38.0301C25.2701 38.0008 25.2734 37.9731 25.2782 37.9454L25.2782 37.9377C25.283 37.91 25.2862 37.8838 25.291 37.8561L25.291 37.8514L25.2926 37.8453C25.2959 37.8206 25.3007 37.7945 25.3055 37.7698L25.3087 37.7544C25.3135 37.7282 25.3184 37.702 25.3248 37.6774L25.3248 37.6682C25.3328 37.642 25.3376 37.6173 25.3441 37.5911L25.3473 37.5757C25.3521 37.5526 25.3585 37.5295 25.365 37.5064L25.3698 37.491C25.3762 37.4679 25.3826 37.4448 25.3891 37.4217L25.3939 37.4048C25.4003 37.3817 25.4084 37.357 25.4164 37.3339L25.4212 37.3185C25.4276 37.2969 25.4357 37.2754 25.4437 37.2538L25.4518 37.2323C25.4582 37.2122 25.4662 37.1922 25.4743 37.1722L25.4839 37.1491C25.4919 37.1291 25.5 37.109 25.508 37.089L25.5177 37.0644C25.5257 37.0459 25.5321 37.0289 25.5402 37.0105L25.553 36.9812C25.561 36.9643 25.5691 36.9473 25.5771 36.9304L25.59 36.9026C25.598 36.8857 25.6061 36.8703 25.6141 36.8534L25.6302 36.8225L25.6511 36.781L25.6736 36.7394L25.6944 36.7024L25.7169 36.6624L25.7395 36.6239L25.762 36.5869L25.7812 36.5545L25.8102 36.5099L25.8278 36.4821C25.8391 36.4652 25.8503 36.4498 25.8616 36.4329L25.8648 36.4282L25.8841 36.4005C25.8182 36.3651 25.7523 36.3281 25.6864 36.2912C25.5884 36.3836 25.5048 36.4775 25.4357 36.5607C25.1994 36.8364 25.1078 36.9612 24.939 37.069C24.7687 37.1753 24.5196 37.2631 24.3299 37.3201C24.1403 37.377 24.0101 37.4017 23.9506 37.5896C23.8911 37.7775 23.9056 38.1287 24.0615 38.3043C24.219 38.4799 24.5196 38.4799 24.6964 38.58C24.8732 38.6801 24.9246 38.8803 25.0371 39.4271C25.148 39.9724 25.3184 40.8627 25.9339 41.4079C26.5495 41.9532 27.6087 42.1534 28.3416 42.2412C28.6759 42.2812 28.9411 42.2982 29.1612 42.2951L29.15 42.3151C29.1596 42.309 29.1709 42.3013 29.1821 42.2951C29.4345 42.2905 29.6225 42.2597 29.7816 42.2104C29.7993 42.2058 29.8154 42.1996 29.8331 42.1935C29.2127 42.5231 28.9427 42.8049 28.8141 43.0514C28.8044 43.0791 28.7948 43.1084 28.7852 43.1376C29.0568 42.8665 29.3927 42.6709 29.7447 42.8157C29.1484 43.0483 28.9009 43.3024 28.7691 43.5396C28.9475 43.401 29.1821 43.2963 29.4939 43.2547L29.4875 43.2547C29.5534 43.2455 29.5197 43.247 29.5888 43.2547C29.5614 43.2855 29.5534 43.3024 29.5132 43.3194C28.8848 43.6028 28.6823 43.9216 28.6019 44.2251C28.8527 43.9555 29.2561 43.8277 29.9006 43.877C29.4923 44.0079 29.293 44.3637 29.0937 44.4792C27.419 44.3591 28.1455 46.0487 28.9202 45.9471C28.5328 45.4865 28.5923 45.3418 28.7723 44.9336C31.3101 47.5335 36.3199 47.4165 38.5941 44.9983C38.9525 45.4111 38.8448 45.7253 38.5153 45.9948C34.6998 48.5886 31.2073 47.7384 29.1886 45.9733C30.7074 48.9337 36.4356 49.2109 38.5298 46.0041C38.6295 46.0857 38.6696 46.2705 38.6021 46.4831L38.5989 46.4723Z" fill="white"/>
<path fill-rule="evenodd" clip-rule="evenodd" d="M32.5391 29.3906C32.4073 29.4106 32.2739 29.4245 32.1405 29.4307C32.0312 29.7156 31.8913 29.8589 31.6888 29.9328C31.3385 30.0606 30.8033 29.9852 30.3082 29.8573C29.8132 29.7295 29.3583 29.5493 29.2973 29.5462C29.2362 29.5431 29.5689 29.7156 30.0559 29.8989C30.5429 30.0822 31.1874 30.2763 31.5763 30.3425C31.9669 30.4087 32.1035 30.3456 32.2594 30.1007C32.351 29.9559 32.4491 29.748 32.5391 29.3922L32.5391 29.3906Z" fill="white"/>
<path fill-rule="evenodd" clip-rule="evenodd" d="M31.9726 34.0736L32.1414 33.0139L30.5358 31.4567L32.7891 31.1024L32.8437 31.0008C30.4442 30.8159 28.3981 29.9688 27.2522 28.7812C27.2361 29.4898 27.1686 30.1043 27.0368 30.5664C26.9034 31.0377 26.7748 31.0608 26.5514 30.9638C27.2795 32.4887 29.3528 33.6824 31.971 34.0736L31.9726 34.0736Z" fill="white"/>
<path fill-rule="evenodd" clip-rule="evenodd" d="M42.8968 16.7253C42.8968 16.3218 42.8727 16.6129 42.8277 16.559C42.6815 16.6314 42.495 16.6992 42.2716 16.7654C42.6236 16.348 42.1527 15.6549 41.2591 15.7658C41.2301 15.7688 41.2301 15.7735 41.206 15.7904C41.378 15.8936 41.6239 15.8489 41.8473 16.003C42.3536 16.3526 42.2202 16.5898 41.9116 16.8624C41.7219 16.9086 41.5146 16.9533 41.2912 16.9949C41.595 16.673 41.5805 16.194 40.748 15.9953C41.2928 16.4697 41.4953 16.6868 40.9135 17.0611C40.7287 17.0919 40.5358 17.1212 40.3333 17.1489C40.6563 16.7962 40.6628 16.2633 40.0536 16.2787C40.0568 16.2802 40.4104 16.5051 40.3606 16.5205C40.3011 16.8547 40.2095 17.0473 40.036 17.1905C39.8061 17.2198 39.565 17.2475 39.3143 17.2737C39.5602 16.9779 39.6904 16.4835 39.3802 16.3772C39.3754 16.3819 39.4638 16.9487 39.0475 17.2999C38.8627 17.3183 38.6746 17.3353 38.4818 17.3507C38.6184 17.2552 38.7084 17.1212 38.7084 16.9348C38.7084 16.8886 38.673 16.7854 38.6152 16.8255C38.6827 17.058 38.2455 17.266 37.8871 17.3954C36.6013 17.4862 36.8135 17.725 33.861 17.725C30.9085 17.725 25.7862 17.0457 24.6338 16.4789C24.5888 16.5328 24.5647 16.2417 24.5647 16.6453C24.5647 17.0488 28.7355 18.2671 33.861 18.2671C38.9864 18.2671 42.8984 17.1258 42.8984 16.7223L42.8968 16.7253Z" fill="white"/>
<path fill-rule="evenodd" clip-rule="evenodd" d="M38.7417 18.2318C38.7208 18.2149 37.9108 18.3597 37.2309 18.5091C36.551 18.6585 36.003 18.811 35.6446 18.9835C35.2878 19.156 35.1206 19.3501 34.9695 20.2157C34.9149 20.5299 34.8618 20.9319 34.8152 21.3924L34.8602 21.3493C34.9985 21.2122 35.127 21.0736 35.2524 20.9334C35.2781 20.7255 35.3038 20.5361 35.3279 20.3728C35.4613 19.4687 35.5562 19.31 35.8664 19.1406C36.1766 18.9711 36.7037 18.7909 37.3514 18.6107C37.9976 18.4305 38.7642 18.2503 38.7417 18.2334L38.7417 18.2318Z" fill="white"/>
<path fill-rule="evenodd" clip-rule="evenodd" d="M35.1016 22.3867C35.0051 22.4822 34.9087 22.5762 34.8139 22.664C34.7785 22.6979 34.7431 22.7302 34.7062 22.7641L34.6998 22.8642C34.8155 22.9181 34.9344 22.9659 35.055 23.0059C35.0694 22.7949 35.0855 22.5885 35.1016 22.3867Z" fill="white"/>
<path fill-rule="evenodd" clip-rule="evenodd" d="M28.7783 18.2318C28.7574 18.2488 29.5224 18.429 30.1685 18.6092C30.8146 18.7894 31.3434 18.9696 31.6536 19.139C31.9638 19.3085 32.0586 19.4687 32.192 20.3713C32.2161 20.533 32.2418 20.7178 32.266 20.9227C32.3945 21.0675 32.5263 21.2092 32.6678 21.3493L32.7031 21.3847C32.6565 20.9273 32.6035 20.5284 32.5488 20.2157C32.3977 19.3501 32.2306 19.156 31.8738 18.9835C31.517 18.811 30.9673 18.6585 30.2875 18.5091C29.6092 18.3597 28.7992 18.2149 28.7767 18.2318L28.7783 18.2318Z" fill="white"/>
<path fill-rule="evenodd" clip-rule="evenodd" d="M32.8217 22.7578C32.7879 22.727 32.7558 22.6962 32.722 22.6654C32.624 22.573 32.5244 22.4775 32.4247 22.3789C32.4424 22.5838 32.4585 22.7948 32.4729 23.0089C32.5935 22.9688 32.7108 22.9226 32.8281 22.8687L32.8217 22.7563L32.8217 22.7578Z" fill="white"/>
<path fill-rule="evenodd" clip-rule="evenodd" d="M35.5165 20.9084C35.3735 21.0732 35.1999 21.2642 34.9894 21.4721C34.9428 21.5183 34.8945 21.5661 34.8447 21.6123C34.8351 21.6277 34.8254 21.6446 34.8142 21.6616C34.7885 21.6847 34.7643 21.7078 34.737 21.7309C34.7467 21.714 34.7563 21.7001 34.766 21.6862C34.5843 21.8557 34.3883 22.0297 34.1873 22.193C33.9495 22.3809 33.6971 22.5673 33.44 22.7382C33.0125 23.0062 32.638 23.1572 32.339 23.2342C32.3358 23.2342 32.3342 23.2342 32.331 23.2357C31.9983 23.305 31.7219 23.2958 31.5611 23.2789C31.4422 23.2527 31.3779 23.2173 31.2992 23.2234C31.2943 23.2234 31.2895 23.2234 31.2847 23.225C31.1931 23.2188 31.0838 23.2434 31.0661 23.3867C31.0436 23.4437 31.0516 23.5099 31.0902 23.5746C31.1079 23.6146 31.1384 23.6516 31.185 23.6793L31.1915 23.684C31.3088 23.7517 31.7781 23.9966 32.8967 23.667C33.1748 23.5854 33.4416 23.4606 33.6923 23.3097C33.6923 23.3143 33.6955 23.3174 33.702 23.3189L33.7052 23.3189C33.7984 23.2619 33.8916 23.1988 33.9864 23.131C33.9945 23.1218 34.0009 23.1125 34.0089 23.1017C34.1134 23.0278 34.2147 22.9492 34.3143 22.8692C34.3143 22.8722 34.3143 22.8738 34.3143 22.8769C34.414 22.7937 34.5136 22.7059 34.6165 22.6104C34.6165 22.6104 34.6181 22.6073 34.6181 22.6058C34.6374 22.5873 34.6583 22.5688 34.6776 22.5503C34.6776 22.5503 34.6776 22.5534 34.6759 22.5534L34.6872 22.5426L34.7451 22.4887C34.7451 22.4887 34.7483 22.4856 34.7483 22.4841C34.8206 22.4148 34.8913 22.3455 34.9604 22.2777C34.9604 22.2777 34.9604 22.2792 34.9604 22.2808C35.0778 22.1637 35.1935 22.0436 35.306 21.9234C35.306 21.9219 35.306 21.9188 35.3076 21.9173C35.3494 21.8726 35.3896 21.8295 35.4281 21.7863C35.4281 21.7863 35.4281 21.7879 35.4281 21.7894L35.4651 21.7494C35.4651 21.7494 35.4667 21.7448 35.4683 21.7432C35.5021 21.7078 35.5326 21.6724 35.5631 21.64C35.7705 21.4167 35.9328 21.218 36.0533 21.0486C36.0662 21.0301 36.0791 21.0131 36.0919 20.9962C36.3684 20.6173 36.3957 20.4509 36.3652 20.3585C36.3603 20.3385 36.3507 20.3216 36.3378 20.3092C36.2912 20.2492 36.2109 20.2415 36.1434 20.2569C36.0855 20.2707 36.0373 20.3031 35.9473 20.4001C35.838 20.5064 35.6901 20.6789 35.5149 20.9053L35.5165 20.9084Z" fill="white"/>
<path fill-rule="evenodd" clip-rule="evenodd" d="M34.5023 28.4727L34.115 28.7514C34.115 28.7514 34.1166 28.753 34.1182 28.7545C34.1214 28.7576 34.1262 28.7622 34.1342 28.7699C34.16 28.7961 34.1873 28.8192 34.213 28.8408C34.2901 28.9039 34.3705 28.9471 34.4348 28.9779C34.6807 29.1057 35.0761 29.2397 35.6515 29.2258C35.997 29.2181 36.2172 29.1796 36.3538 29.1273C36.3763 29.1242 36.3908 29.118 36.3956 29.1103C36.611 29.0117 36.574 28.8716 36.5242 28.7853C36.4438 28.6452 36.3249 28.5974 36.071 28.7022C35.9713 28.7422 35.8604 28.7622 35.7463 28.7684C35.6467 28.7715 35.5293 28.7668 35.3927 28.7468C35.2577 28.7253 35.1339 28.6945 35.0439 28.6652C34.7482 28.5712 34.5039 28.4757 34.5039 28.4757L34.5023 28.4727Z" fill="white"/>
<path fill-rule="evenodd" clip-rule="evenodd" d="M33.5648 27.9444L33.5729 27.9398C33.5182 27.9028 33.4636 27.8643 33.4073 27.8243C33.4153 27.832 33.4234 27.8397 33.4314 27.8474C33.3736 27.8042 33.3028 27.7534 33.2273 27.6949C33.2241 27.6918 33.2209 27.6887 33.2193 27.6856C33.1277 27.6179 33.0393 27.5486 32.9509 27.4792C32.8014 27.3591 32.6551 27.2343 32.5458 27.125C32.316 26.8955 32.3112 26.9247 31.6442 26.1654L31.5976 26.1269C31.3034 25.9159 30.8502 26.2101 31.477 26.7861C32.0187 27.2836 33.0296 28.2802 33.0296 28.2802L33.5937 27.9629C33.5937 27.9629 33.5841 27.9552 33.5664 27.9429L33.5648 27.9444Z" fill="white"/>
<path fill-rule="evenodd" clip-rule="evenodd" d="M36.0907 26.0545C36.0441 26.0914 35.9878 26.1469 35.9075 26.2285C35.8432 26.2932 35.7644 26.3764 35.6712 26.4719C35.4912 26.6429 35.2485 26.8708 34.9222 27.1681C34.9013 27.1881 34.8804 27.2066 34.8579 27.2251C34.8515 27.2312 34.8435 27.2359 34.8371 27.242C34.8371 27.242 34.8371 27.2436 34.8354 27.2451C34.8049 27.2728 34.7744 27.299 34.7422 27.3252C34.7454 27.3206 34.7503 27.3144 34.7535 27.3098C34.4658 27.5424 34.1427 27.7827 33.8293 27.9875C33.3729 28.2663 32.9325 28.465 32.5532 28.6005C32.4889 28.6236 32.4278 28.6421 32.3683 28.6575C32.3169 28.6698 32.2671 28.6806 32.2205 28.6899C32.1176 28.7084 32.0244 28.7207 31.9392 28.7253C31.7287 28.7361 31.5615 28.7099 31.4458 28.6822C31.3269 28.6467 31.2626 28.6052 31.1822 28.6082C31.1613 28.6082 31.1388 28.6129 31.1163 28.619C31.0472 28.6267 30.9813 28.6544 30.9427 28.7222C30.9427 28.7222 30.8897 28.7869 30.9299 28.9271C30.9668 29.058 31.0552 29.1165 31.5101 29.1797C31.5053 29.1812 31.5053 29.1828 31.5101 29.1843C31.5181 29.1858 31.5374 29.1874 31.5631 29.1874C31.5824 29.1905 31.6033 29.192 31.6242 29.1951C32.1192 29.2582 32.7669 29.2197 33.5689 28.867C33.5689 28.867 33.5722 28.8685 33.5738 28.8701L33.577 28.8701C33.6043 28.8562 33.6316 28.8424 33.6573 28.827C33.7265 28.7946 33.7956 28.7607 33.8663 28.7238C34.4192 28.4388 35.1328 27.7734 35.6632 27.2112C35.8464 27.0279 36.0071 26.8554 36.1277 26.7137C36.2562 26.5612 36.3382 26.4442 36.388 26.3517C36.388 26.3517 36.3896 26.3487 36.3896 26.3471C36.4121 26.3086 36.4266 26.2717 36.4362 26.2393C36.4604 26.1654 36.4555 26.1145 36.4411 26.0776C36.4057 25.9867 36.3141 25.9667 36.2337 25.9805C36.2177 25.9836 36.2032 25.9867 36.1871 25.9929C36.1534 26.0021 36.1212 26.0175 36.1019 26.0406C36.0987 26.0437 36.0955 26.0483 36.0907 26.0529L36.0907 26.0545Z" fill="white"/>
<path fill-rule="evenodd" clip-rule="evenodd" d="M34.6495 31.4382L33.8571 29.9687L33.0648 31.4382L31.3627 31.7062L32.5762 32.8814L32.3158 34.5156L33.8571 33.7732L35.3985 34.5156L35.1381 32.8814L36.3516 31.7062L34.6495 31.4382Z" fill="white"/>
<path fill-rule="evenodd" clip-rule="evenodd" d="M34.8499 31.0008L34.9046 31.1024L37.1579 31.4567L35.5523 33.0139L35.721 34.0736C38.3392 33.6839 40.4125 32.4902 41.1406 30.9638C40.9172 31.0608 40.7886 31.0377 40.6552 30.5664C40.5234 30.1043 40.4559 29.4898 40.4399 28.7812C39.2955 29.9688 37.2495 30.8159 34.8483 31.0008L34.8499 31.0008Z" fill="white"/>
</g>
</g>
<defs>
<filter id="filter0_dd_4655_25966" x="0" y="0" width="68" height="71" filterUnits="userSpaceOnUse" color-interpolation-filters="sRGB">
<feFlood flood-opacity="0" result="BackgroundImageFix"/>
<feColorMatrix in="SourceAlpha" type="matrix" values="0 0 0 0 0 0 0 0 0 0 0 0 0 0 0 0 0 0 127 0" result="hardAlpha"/>
<feOffset dy="3"/>
<feGaussianBlur stdDeviation="1"/>
<feColorMatrix type="matrix" values="0 0 0 0 0.0901961 0 0 0 0 0.168627 0 0 0 0 0.301961 0 0 0 0.08 0"/>
<feBlend mode="normal" in2="BackgroundImageFix" result="effect1_dropShadow_4655_25966"/>
<feColorMatrix in="SourceAlpha" type="matrix" values="0 0 0 0 0 0 0 0 0 0 0 0 0 0 0 0 0 0 127 0" result="hardAlpha"/>
<feOffset/>
<feGaussianBlur stdDeviation="1"/>
<feColorMatrix type="matrix" values="0 0 0 0 0.0901961 0 0 0 0 0.168627 0 0 0 0 0.301961 0 0 0 0.04 0"/>
<feBlend mode="normal" in2="effect1_dropShadow_4655_25966" result="effect2_dropShadow_4655_25966"/>
<feBlend mode="normal" in="SourceGraphic" in2="effect2_dropShadow_4655_25966" result="shape"/>
</filter>
<clipPath id="clip0_4655_25966">
<rect width="46" height="48" fill="white" transform="translate(58 11) rotate(90)"/>
</clipPath>
</defs>
</svg>
