<svg width="64" height="64" viewBox="0 0 64 64" fill="none" xmlns="http://www.w3.org/2000/svg">
<path fill-rule="evenodd" clip-rule="evenodd" d="M31.3595 10.415C22.6194 10.415 15.5341 17.5002 15.5341 26.2404C15.5341 34.9806 22.6194 42.0659 31.3595 42.0659C40.0997 42.0659 47.185 34.9806 47.185 26.2404C47.185 17.5002 40.0997 10.415 31.3595 10.415ZM12.625 26.2404C12.625 15.8936 21.0127 7.50586 31.3595 7.50586C41.7063 7.50586 50.0941 15.8936 50.0941 26.2404C50.0941 36.5872 41.7063 44.9749 31.3595 44.9749C21.0127 44.9749 12.625 36.5872 12.625 26.2404Z" fill="#006644"/>
<path fill-rule="evenodd" clip-rule="evenodd" d="M31.996 44.9745C27.1228 44.9745 22.3136 46.5284 18.0495 49.5133C14.3601 52.0959 11.188 55.6745 8.78269 59.9854H55.2092C52.8039 55.6745 49.6318 52.0959 45.9424 49.5133C41.6783 46.5284 36.8691 44.9745 31.996 44.9745ZM16.3813 47.1301C21.1048 43.8236 26.4909 42.0654 31.996 42.0654C37.501 42.0654 42.8872 43.8236 47.6106 47.1301C52.3306 50.434 56.2181 55.1627 58.9092 60.8147C59.1238 61.2653 59.0923 61.7945 58.8258 62.2166C58.5593 62.6386 58.0951 62.8945 57.596 62.8945H6.39595C5.89683 62.8945 5.43256 62.6386 5.16607 62.2166C4.89958 61.7945 4.8681 61.2653 5.08268 60.8147C7.77381 55.1627 11.6614 50.434 16.3813 47.1301Z" fill="#006644"/>
<path opacity="0.2" d="M31.3581 43.52C40.9016 43.52 48.6381 35.7834 48.6381 26.24C48.6381 16.6965 40.9016 8.95996 31.3581 8.95996C21.8146 8.95996 14.0781 16.6965 14.0781 26.24C14.0781 35.7834 21.8146 43.52 31.3581 43.52Z" fill="#006644"/>
<path opacity="0.2" fill-rule="evenodd" clip-rule="evenodd" d="M31.3595 10.415C22.6194 10.415 15.5341 17.5002 15.5341 26.2404C15.5341 34.9806 22.6194 42.0659 31.3595 42.0659C40.0997 42.0659 47.185 34.9806 47.185 26.2404C47.185 17.5002 40.0997 10.415 31.3595 10.415ZM12.625 26.2404C12.625 15.8936 21.0127 7.50586 31.3595 7.50586C41.7063 7.50586 50.0941 15.8936 50.0941 26.2404C50.0941 36.5872 41.7063 44.9749 31.3595 44.9749C21.0127 44.9749 12.625 36.5872 12.625 26.2404Z" fill="#006644"/>
<path opacity="0.2" d="M6.39844 61.4395C8.99258 55.9913 12.7241 51.4669 17.2179 48.3212C21.7117 45.1756 26.8093 43.5195 31.9984 43.5195C37.1875 43.5195 42.2852 45.1756 46.779 48.3212C51.2728 51.4669 55.0043 55.9913 57.5984 61.4395" fill="#006644"/>
<path opacity="0.2" fill-rule="evenodd" clip-rule="evenodd" d="M31.996 44.9745C27.1228 44.9745 22.3136 46.5284 18.0495 49.5133C14.3601 52.0959 11.188 55.6745 8.78269 59.9854H55.2092C52.8039 55.6745 49.6318 52.0959 45.9424 49.5133C41.6783 46.5284 36.8691 44.9745 31.996 44.9745ZM16.3813 47.1301C21.1048 43.8236 26.4909 42.0654 31.996 42.0654C37.501 42.0654 42.8872 43.8236 47.6106 47.1301C52.3306 50.434 56.2181 55.1627 58.9092 60.8147C59.1238 61.2653 59.0923 61.7945 58.8258 62.2166C58.5593 62.6386 58.0951 62.8945 57.596 62.8945H6.39595C5.89683 62.8945 5.43256 62.6386 5.16607 62.2166C4.89958 61.7945 4.8681 61.2653 5.08268 60.8147C7.77381 55.1627 11.6614 50.434 16.3813 47.1301Z" fill="#006644"/>
<path fill-rule="evenodd" clip-rule="evenodd" d="M31.3595 10.415C22.6194 10.415 15.5341 17.5002 15.5341 26.2404C15.5341 34.9806 22.6194 42.0659 31.3595 42.0659C40.0997 42.0659 47.185 34.9806 47.185 26.2404C47.185 17.5002 40.0997 10.415 31.3595 10.415ZM12.625 26.2404C12.625 15.8936 21.0127 7.50586 31.3595 7.50586C41.7063 7.50586 50.0941 15.8936 50.0941 26.2404C50.0941 36.5872 41.7063 44.9749 31.3595 44.9749C21.0127 44.9749 12.625 36.5872 12.625 26.2404Z" fill="#36B37E"/>
<path fill-rule="evenodd" clip-rule="evenodd" d="M31.996 44.9745C27.1228 44.9745 22.3136 46.5284 18.0495 49.5133C14.3601 52.0959 11.188 55.6745 8.78269 59.9854H55.2092C52.8039 55.6745 49.6318 52.0959 45.9424 49.5133C41.6783 46.5284 36.8691 44.9745 31.996 44.9745ZM16.3813 47.1301C21.1048 43.8236 26.4909 42.0654 31.996 42.0654C37.501 42.0654 42.8872 43.8236 47.6106 47.1301C52.3306 50.434 56.2181 55.1627 58.9092 60.8147C59.1238 61.2653 59.0923 61.7945 58.8258 62.2166C58.5593 62.6386 58.0951 62.8945 57.596 62.8945H6.39595C5.89683 62.8945 5.43256 62.6386 5.16607 62.2166C4.89958 61.7945 4.8681 61.2653 5.08268 60.8147C7.77381 55.1627 11.6614 50.434 16.3813 47.1301Z" fill="#36B37E"/>
<path fill-rule="evenodd" clip-rule="evenodd" d="M2.38672 22.1097C2.38672 19.6998 4.34039 17.7461 6.75036 17.7461H8.61217C11.0221 17.7461 12.9758 19.6998 12.9758 22.1097V31.6515C12.9758 34.0615 11.0221 36.0152 8.61217 36.0152H6.75036C4.34039 36.0152 2.38672 34.0615 2.38672 31.6515V22.1097ZM6.75036 20.6552C5.94703 20.6552 5.29581 21.3064 5.29581 22.1097V31.6515C5.29581 32.4549 5.94703 33.1061 6.75036 33.1061H8.61217C9.4155 33.1061 10.0667 32.4549 10.0667 31.6515V22.1097C10.0667 21.3064 9.4155 20.6552 8.61217 20.6552H6.75036Z" fill="#006644"/>
<path fill-rule="evenodd" clip-rule="evenodd" d="M49.7461 22.1097C49.7461 19.6998 51.6998 17.7461 54.1097 17.7461H55.9715C58.3815 17.7461 60.3352 19.6998 60.3352 22.1097V31.6515C60.3352 34.0615 58.3815 36.0152 55.9715 36.0152H54.1097C51.6998 36.0152 49.7461 34.0615 49.7461 31.6515V22.1097ZM54.1097 20.6552C53.3064 20.6552 52.6552 21.3064 52.6552 22.1097V31.6515C52.6552 32.4549 53.3064 33.1061 54.1097 33.1061H55.9715C56.7749 33.1061 57.4261 32.4549 57.4261 31.6515V22.1097C57.4261 21.3064 56.7749 20.6552 55.9715 20.6552H54.1097Z" fill="#006644"/>
<path fill-rule="evenodd" clip-rule="evenodd" d="M31.3973 4.01456C21.1768 4.01456 12.7236 10.1976 10.3701 19.6372C10.1758 20.4167 9.38639 20.891 8.60693 20.6967C7.82746 20.5023 7.35312 19.7129 7.54745 18.9335C10.2553 8.07246 19.975 1.10547 31.3973 1.10547C42.7359 1.10547 52.3544 8.24389 55.1654 18.9148C55.37 19.6916 54.9061 20.4873 54.1293 20.6919C53.3525 20.8965 52.5569 20.4327 52.3522 19.6559C49.896 10.3316 41.4874 4.01456 31.3973 4.01456ZM10.0495 33.5439C10.626 32.9845 11.5469 32.9984 12.1063 33.5749C13.723 35.241 16.2107 36.1329 19.5938 36.5656C22.6277 36.9537 26.1485 36.9492 30.0475 36.9442C30.4925 36.9436 30.9426 36.943 31.3973 36.943C32.2007 36.943 32.8519 37.5942 32.8519 38.3975C32.8519 39.2009 32.2007 39.8521 31.3973 39.8521C30.9415 39.8521 30.4869 39.8528 30.0342 39.8534C26.1784 39.8592 22.4575 39.8647 19.2247 39.4512C15.6151 38.9895 12.3239 37.9766 10.0185 35.6007C9.4591 35.0242 9.47297 34.1033 10.0495 33.5439Z" fill="#006644"/>
</svg>
