<svg width="48" height="48" viewBox="0 0 48 48" fill="none" xmlns="http://www.w3.org/2000/svg">
<path opacity="0.5" d="M23.3111 14.4492L14.1049 32.7135C14.0284 32.8673 13.9959 33.0434 14.0117 33.2183C14.0275 33.3932 14.0909 33.5586 14.1934 33.6924C14.2959 33.8263 14.4327 33.9223 14.5855 33.9676C14.7383 34.013 14.9 34.0055 15.0489 33.9462L23.7295 30.5075C23.8981 30.4317 24.0865 30.4317 24.255 30.5075L32.9357 33.9462C33.0846 34.0055 33.2462 34.013 33.3991 33.9676C33.5519 33.9223 33.6887 33.8263 33.7912 33.6924C33.8937 33.5586 33.957 33.3932 33.9728 33.2183C33.9887 33.0434 33.9562 32.8673 33.8797 32.7135L24.6735 14.4492C24.6062 14.314 24.5075 14.2013 24.3877 14.1228C24.2679 14.0443 24.1314 14.0029 23.9923 14.0029C23.8532 14.0029 23.7167 14.0443 23.5969 14.1228C23.4771 14.2013 23.3784 14.314 23.3111 14.4492Z" fill="white"/>
<path fill-rule="evenodd" clip-rule="evenodd" d="M24.5149 12.7364C25.0474 13.0183 25.2505 13.6784 24.9687 14.2109L15.3368 32.4044L23.6595 29.6301C24.2311 29.4396 24.8489 29.7485 25.0394 30.3201C25.23 30.8917 24.9211 31.5095 24.3495 31.7L13.4437 35.3352C13.0207 35.4762 12.5545 35.3456 12.2663 35.0055C11.9782 34.6653 11.926 34.1839 12.1346 33.7899L23.0404 13.1901C23.3223 12.6576 23.9825 12.4545 24.5149 12.7364Z" fill="#42526E"/>
<path fill-rule="evenodd" clip-rule="evenodd" d="M23.4929 12.7364C22.9604 13.0183 22.7573 13.6784 23.0392 14.2109L32.671 32.4044L24.3483 29.6301C23.7767 29.4396 23.1589 29.7485 22.9684 30.3201C22.7778 30.8917 23.0867 31.5095 23.6583 31.7L34.5641 35.3352C34.9871 35.4762 35.4533 35.3456 35.7415 35.0055C36.0297 34.6653 36.0818 34.1839 35.8732 33.7899L24.9674 13.1901C24.6855 12.6576 24.0253 12.4545 23.4929 12.7364Z" fill="#42526E"/>
<path fill-rule="evenodd" clip-rule="evenodd" d="M23.9972 22.3887C24.5997 22.3887 25.0881 22.8771 25.0881 23.4796L25.0881 30.4003C25.0881 31.0028 24.5997 31.4912 23.9972 31.4912C23.3947 31.4912 22.9063 31.0028 22.9063 30.4003L22.9063 23.4796C22.9063 22.8771 23.3947 22.3887 23.9972 22.3887Z" fill="#42526E"/>
<path fill-rule="evenodd" clip-rule="evenodd" d="M2.18466 14.1826C1.58217 14.1826 1.09375 13.6942 1.09375 13.0917L1.09375 2.18582C1.09375 1.58333 1.58217 1.09491 2.18466 1.09491L13.0905 1.09491C13.693 1.09491 14.1815 1.58333 14.1815 2.18582C14.1815 2.78831 13.693 3.27673 13.0905 3.27673L3.27557 3.27673L3.27557 13.0917C3.27557 13.6942 2.78715 14.1826 2.18466 14.1826Z" fill="#253858"/>
<path fill-rule="evenodd" clip-rule="evenodd" d="M1.41317 1.41386C1.83914 0.987776 2.52987 0.987687 2.95595 1.41366L16.0426 14.497C16.4687 14.9229 16.4688 15.6137 16.0428 16.0398C15.6168 16.4658 14.9261 16.4659 14.5 16.04L1.41337 2.95663C0.987287 2.53066 0.987199 1.83994 1.41317 1.41386Z" fill="#253858"/>
<path fill-rule="evenodd" clip-rule="evenodd" d="M33.8047 45.8095C33.8047 45.207 34.2931 44.7186 34.8956 44.7186L44.7106 44.7186L44.7106 34.9036C44.7106 34.3011 45.199 33.8127 45.8015 33.8127C46.404 33.8127 46.8924 34.3011 46.8924 34.9036L46.8924 45.8095C46.8924 46.412 46.404 46.9004 45.8015 46.9004L34.8956 46.9004C34.2931 46.9004 33.8047 46.412 33.8047 45.8095Z" fill="#253858"/>
<path fill-rule="evenodd" clip-rule="evenodd" d="M37.7643 37.7726C38.1901 37.3463 38.8808 37.3459 39.3071 37.7716L46.5806 45.0356C47.0069 45.4614 47.0074 46.1521 46.5816 46.5784C46.1559 47.0047 45.4652 47.0052 45.0389 46.5794L37.7653 39.3154C37.339 38.8897 37.3386 38.1989 37.7643 37.7726Z" fill="#253858"/>
<path fill-rule="evenodd" clip-rule="evenodd" d="M33.8203 2.18191C33.8203 1.57942 34.3087 1.091 34.9112 1.091L45.8171 1.091C46.4196 1.091 46.908 1.57942 46.908 2.18191L46.908 13.0878C46.908 13.6903 46.4196 14.1787 45.8171 14.1787C45.2146 14.1787 44.7262 13.6903 44.7262 13.0878L44.7262 3.27282L34.9112 3.27282C34.3087 3.27282 33.8203 2.7844 33.8203 2.18191Z" fill="#253858"/>
<path fill-rule="evenodd" clip-rule="evenodd" d="M31.9523 16.0466C31.5263 15.6206 31.5263 14.9298 31.9524 14.5038L45.0459 1.41247C45.472 0.986482 46.1627 0.986539 46.5887 1.4126C47.0147 1.83866 47.0146 2.52939 46.5886 2.95538L33.495 16.0468C33.069 16.4727 32.3783 16.4727 31.9523 16.0466Z" fill="#253858"/>
<path fill-rule="evenodd" clip-rule="evenodd" d="M2.18466 46.8984C1.58217 46.8984 1.09375 46.41 1.09375 45.8075L1.09375 34.9016C1.09375 34.2991 1.58217 33.8107 2.18466 33.8107C2.78715 33.8107 3.27557 34.2991 3.27557 34.9016L3.27557 44.7166L13.0905 44.7166C13.693 44.7166 14.1815 45.205 14.1815 45.8075C14.1815 46.41 13.693 46.8984 13.0905 46.8984L2.18466 46.8984Z" fill="#253858"/>
<path fill-rule="evenodd" clip-rule="evenodd" d="M1.41327 46.5789C0.987243 46.1529 0.987243 45.4622 1.41327 45.0361L8.67906 37.7703C9.10509 37.3443 9.79581 37.3443 10.2218 37.7703C10.6479 38.1964 10.6479 38.8871 10.2218 39.3131L2.95605 46.5789C2.53002 47.0049 1.8393 47.0049 1.41327 46.5789Z" fill="#253858"/>
</svg>
