<svg width="56" height="56" viewBox="0 0 56 56" fill="none" xmlns="http://www.w3.org/2000/svg">
<circle cx="28" cy="28" r="28" fill="#229B69"/>
<g clip-path="url(#clip0_5482_3497)">
<path d="M28 12.0039C19.1884 12.0039 12 19.1423 12 28.0039C12 36.8467 19.1561 44.0039 28 44.0039C36.8427 44.0039 44 36.8478 44 28.0039C44 19.1612 36.8439 12.0039 28 12.0039ZM28 14.5039C30.9611 14.5039 33.7762 15.4515 36.1004 17.202C35.7521 20.2466 33.9083 21.4694 32.2696 22.556C31.3265 23.1813 30.512 23.7214 30.1062 24.5699C29.4183 26.0083 30.3181 27.2895 30.9134 28.1373C31.1666 28.4978 31.4817 28.9465 31.5208 29.193C31.5351 29.2825 31.3458 29.4549 31.1988 29.5684C30.2748 30.0535 29.2863 29.9897 28.1796 29.3744C25.582 27.9302 23.2261 23.8166 23.1301 21.851C23.0134 19.4575 21.3971 17.9532 20.0325 17.103C22.3308 15.4157 25.0952 14.5039 28 14.5039ZM36.5384 38.4623C35.8269 37.2133 35.5301 36.1433 35.7354 35.4893C35.9034 34.9543 36.8551 34.472 37.957 33.9135C38.8076 33.4823 39.8131 32.9722 40.8214 32.2519C39.9895 34.7712 38.4561 36.8909 36.5384 38.4623ZM36.8267 31.6836C35.2876 32.4637 33.8338 33.2006 33.3503 34.7403C32.8298 36.3979 33.5456 38.3003 34.4617 39.8631C32.5025 40.9342 30.2952 41.5039 28 41.5039C20.5389 41.5039 14.5 35.466 14.5 28.0039C14.5 24.5875 15.7612 21.3653 18.0622 18.8675C18.9925 19.3187 20.5524 20.3182 20.6331 21.9728C20.7691 24.759 23.5721 29.6732 26.9648 31.5595C28.7629 32.5591 30.6823 32.7166 32.4805 31.7173C33.407 31.2032 34.188 30.0497 33.9899 28.8012C33.8601 27.9832 33.3815 27.3018 32.9592 26.7005C32.7486 26.4005 32.3577 25.8439 32.3599 25.6522C32.3603 25.6512 32.3608 25.65 32.3615 25.6485C32.4692 25.4233 33.1523 24.9703 33.6512 24.6395C35.7766 23.2303 37.4451 21.8075 38.2356 19.2002C40.3478 21.6483 41.5 24.7375 41.5 28.0039C41.5 28.0413 41.4989 28.0785 41.4986 28.1159C40.155 29.9956 38.3913 30.8905 36.8267 31.6836Z" fill="white"/>
</g>
<defs>
<clipPath id="clip0_5482_3497">
<rect width="32" height="32" fill="white" transform="translate(12 12.0039)"/>
</clipPath>
</defs>
</svg>
